<svg xmlns="http://www.w3.org/2000/svg" width="88" height="88" viewBox="0 0 88 88"><rect width="88" height="88" fill="rgba(255,255,255,0)"/><g transform="translate(1.571 4.715)"><g transform="translate(0 29.526)"><path d="M-10369.645,5119.961a13.356,13.356,0,0,1-13.3-12.494,13.251,13.251,0,0,1,3.3-9.66,13.249,13.249,0,0,1,9.164-4.5,13.264,13.264,0,0,1,7.582,1.8,1.277,1.277,0,0,1,.457,1.747,1.279,1.279,0,0,1-1.748.456,10.729,10.729,0,0,0-6.129-1.454,10.714,10.714,0,0,0-7.412,3.636,10.717,10.717,0,0,0-2.67,7.811,10.8,10.8,0,0,0,10.758,10.1c.229,0,.459-.007.691-.022a10.8,10.8,0,0,0,10.08-11.447c-.016-.254-.041-.511-.074-.762a1.275,1.275,0,0,1,1.094-1.434,1.277,1.277,0,0,1,1.436,1.1c.041.31.07.626.092.938a13.353,13.353,0,0,1-12.467,14.155C-10369.076,5119.951-10369.363,5119.961-10369.645,5119.961Z" transform="translate(10382.997 -5093.22)"/><path d="M-10347.925,5141.457a1.275,1.275,0,0,1-1.25-1.024l-2.624-13.053a1.282,1.282,0,0,1,.215-.994,1.271,1.271,0,0,1,.87-.522l6.182-.812.023,0a2.313,2.313,0,0,0,1.936-1.574,1.277,1.277,0,0,1,1.61-.814,1.278,1.278,0,0,1,.815,1.61,4.874,4.874,0,0,1-4.064,3.314l-4.815.632,2.355,11.715a1.277,1.277,0,0,1-1,1.5A1.243,1.243,0,0,1-10347.925,5141.457Z" transform="translate(10376.322 -5099.501)"/><path d="M-10353.951,5119.1a1.276,1.276,0,0,1-1.267-1.136,1.276,1.276,0,0,1,1.127-1.409l6.22-.692,2.133-6.271a1.277,1.277,0,0,1,1.619-.8,1.277,1.277,0,0,1,.8,1.619l-2.394,7.039a1.277,1.277,0,0,1-1.066.858l-7.027.781A1.412,1.412,0,0,1-10353.951,5119.1Z" transform="translate(10377.051 -5096.529)"/><path d="M-10370.35,5148.257a4.117,4.117,0,0,1-2.143-.6l-8.174-4.962a4.872,4.872,0,0,1-2.3-4.721l.656-6.163a12.193,12.193,0,0,1,3.861-7.677l1.971-1.82a1.278,1.278,0,0,1,1.8.073,1.275,1.275,0,0,1-.074,1.8l-1.971,1.819a9.636,9.636,0,0,0-3.053,6.072l-.66,6.176a2.323,2.323,0,0,0,1.094,2.257l8.172,4.962a1.58,1.58,0,0,0,2.076-.391,1.562,1.562,0,0,0,.3-1.245,1.566,1.566,0,0,0-.719-1.058l-6.314-3.927a1.276,1.276,0,0,1-.592-1.234l.709-5.979a1.274,1.274,0,0,1,1.416-1.116,1.275,1.275,0,0,1,1.117,1.417l-.613,5.173,5.623,3.5a4.149,4.149,0,0,1,1.885,2.767,4.135,4.135,0,0,1-.783,3.252A4.129,4.129,0,0,1-10370.35,5148.257Z" transform="translate(10383.004 -5099.367)"/><path d="M-10357.119,5102.982a12.5,12.5,0,0,1-3.124-.445,1.275,1.275,0,0,1-.912-1.556,1.275,1.275,0,0,1,1.557-.913c2.3.6,3.937.463,4.855-.41a4.53,4.53,0,0,0,1.051-3.184,9.644,9.644,0,0,1-4.9.9,5.068,5.068,0,0,1-2.605-.948l1.619-1.975-.028-.02c.084.061,2.08,1.453,6.373-1.058a1.273,1.273,0,0,1,1.16-.066,1.275,1.275,0,0,1,.732.9,11.443,11.443,0,0,1,.19,2.6,6.668,6.668,0,0,1-1.826,4.685A5.757,5.757,0,0,1-10357.119,5102.982Z" transform="translate(10378.33 -5093.202)"/></g><g transform="translate(34.489 30.604)"><path d="M-10328.24,5139.312a1.324,1.324,0,0,1-.257-.026,1.278,1.278,0,0,1-1-1.506l2.4-11.707-4.812-.649a4.875,4.875,0,0,1-4.051-3.329l-2.945-9.094a4.127,4.127,0,0,1,2.243-5.047,4.142,4.142,0,0,1,3.346-.012,4.135,4.135,0,0,1,2.259,2.469l2.109,6.279,6.219.715a1.275,1.275,0,0,1,1.121,1.413,1.275,1.275,0,0,1-1.412,1.123l-7.024-.807a1.277,1.277,0,0,1-1.063-.861l-2.369-7.048a1.551,1.551,0,0,0-.862-.944,1.562,1.562,0,0,0-1.279,0,1.579,1.579,0,0,0-.859,1.931l2.945,9.094a2.314,2.314,0,0,0,1.932,1.581l.022,0,6.178.833a1.279,1.279,0,0,1,.87.526,1.281,1.281,0,0,1,.209.995l-2.67,13.044A1.277,1.277,0,0,1-10328.24,5139.312Z" transform="translate(10339.107 -5097.364)"/><path d="M-10293.908,5138.587a4.857,4.857,0,0,1-3.009-1.038l-5.266-4.008a1.275,1.275,0,0,1-.243-1.788,1.277,1.277,0,0,1,1.788-.243l5.274,4.014.019.014a2.316,2.316,0,0,0,2.484.246l8.512-4.354a1.579,1.579,0,0,0,.756-1.972,1.561,1.561,0,0,0-.9-.908,1.565,1.565,0,0,0-1.278.058l-6.655,3.314a1.276,1.276,0,0,1-1.362-.143l-7.008-5.556a1.276,1.276,0,0,1-.207-1.792,1.278,1.278,0,0,1,1.794-.208l6.37,5.053,5.93-2.953a4.148,4.148,0,0,1,3.344-.151,4.141,4.141,0,0,1,2.358,2.374,4.126,4.126,0,0,1-1.978,5.156l-8.511,4.354A4.852,4.852,0,0,1-10293.908,5138.587Z" transform="translate(10331.304 -5100.869)"/><path d="M-10309.768,5121.36c-.3,0-.6-.01-.9-.029a13.25,13.25,0,0,1-9.146-4.53,13.241,13.241,0,0,1-3.267-9.671c.021-.315.054-.63.1-.938a1.274,1.274,0,0,1,1.437-1.09,1.275,1.275,0,0,1,1.09,1.438c-.034.249-.061.505-.077.761a10.714,10.714,0,0,0,2.643,7.821,10.711,10.711,0,0,0,7.4,3.662,10.8,10.8,0,0,0,11.483-10.04,10.8,10.8,0,0,0-10.038-11.483,8.44,8.44,0,0,0-4.114.7c-.221.08-.444.163-.677.245-.194.068-.395.157-.6.251-1.607.717-3.164,1.125-6.568-.554a4.489,4.489,0,0,0,1.039,3.139c.914.875,2.548,1.019,4.854.427a1.276,1.276,0,0,1,1.553.918,1.276,1.276,0,0,1-.918,1.553c-3.225.828-5.669.47-7.263-1.063-2.6-2.505-1.651-7.1-1.608-7.293a1.275,1.275,0,0,1,.736-.9,1.276,1.276,0,0,1,1.16.07c3.9,2.3,4.858,1.87,5.974,1.372.248-.11.5-.224.8-.328.221-.078.434-.156.643-.233a10.91,10.91,0,0,1,5.167-.849,13.352,13.352,0,0,1,12.413,14.2A13.354,13.354,0,0,1-10309.768,5121.36Z" transform="translate(10335.776 -5094.574)"/><path d="M-10301.622,5149.111a1.221,1.221,0,0,1-.257-.027,1.275,1.275,0,0,1-1-1.505l2.3-11.249a1.273,1.273,0,0,1,1.5-.994,1.275,1.275,0,0,1,.993,1.506l-2.3,11.249A1.277,1.277,0,0,1-10301.622,5149.111Z" transform="translate(10331.35 -5103.304)"/></g><path d="M-10311.025,5110.357a8.378,8.378,0,0,1-3.707-.856,1.275,1.275,0,0,1-.548-1.719,1.275,1.275,0,0,1,1.714-.551,5.308,5.308,0,0,0,6.582-1.485,1.276,1.276,0,0,1,1.79-.229,1.276,1.276,0,0,1,.229,1.79A7.436,7.436,0,0,1-10311.025,5110.357Z" transform="translate(10368.521 -5066.259)"/><path d="M-10305.241,5113.239a8.292,8.292,0,0,1-5.561-2.276,1.278,1.278,0,0,1-.011-1.8,1.276,1.276,0,0,1,1.8-.015,5.31,5.31,0,0,0,6.726.541,1.276,1.276,0,0,1,1.777.315,1.275,1.275,0,0,1-.313,1.776A7.608,7.608,0,0,1-10305.241,5113.239Z" transform="translate(10367.611 -5067.014)"/><path d="M-10371.118,5114.937a1.276,1.276,0,0,1-1.186-.8,2.49,2.49,0,0,1,.025-1.917,2.49,2.49,0,0,1,1.372-1.337,2.486,2.486,0,0,1,1.917.025,2.491,2.491,0,0,1,1.338,1.373,1.277,1.277,0,0,1-.713,1.658,1.278,1.278,0,0,1-1.485-.409,1.275,1.275,0,0,1-.8,1.318A1.262,1.262,0,0,1-10371.118,5114.937Z" transform="translate(10380.748 -5067.426)"/><path d="M-10360.912,5110.866a1.28,1.28,0,0,1-1.187-.8,2.507,2.507,0,0,1,1.4-3.253,2.481,2.481,0,0,1,1.917.025,2.488,2.488,0,0,1,1.338,1.372,1.275,1.275,0,0,1-.713,1.658,1.277,1.277,0,0,1-1.484-.409,1.279,1.279,0,0,1-.8,1.319A1.282,1.282,0,0,1-10360.912,5110.866Z" transform="translate(10378.561 -5066.554)"/><path d="M-10314.3,5116.293a1.276,1.276,0,0,1-.461-.086,1.274,1.274,0,0,1-.812-1.111,1.276,1.276,0,0,1-1.35.275,1.275,1.275,0,0,1-.729-1.65,2.415,2.415,0,0,1,1.287-1.349,2.42,2.42,0,0,1,1.863-.043,2.437,2.437,0,0,1,1.392,3.15A1.276,1.276,0,0,1-10314.3,5116.293Z" transform="translate(10369.018 -5067.739)"/><path d="M-10304.625,5120.038a1.285,1.285,0,0,1-.461-.086,1.274,1.274,0,0,1-.812-1.111,1.279,1.279,0,0,1-1.352.273,1.275,1.275,0,0,1-.729-1.65,2.438,2.438,0,0,1,3.15-1.392,2.414,2.414,0,0,1,1.349,1.287,2.423,2.423,0,0,1,.044,1.864A1.277,1.277,0,0,1-10304.625,5120.038Z" transform="translate(10366.944 -5068.542)"/><g transform="translate(3.149)"><path d="M1.276,0h0A1.276,1.276,0,0,1,2.552,1.276v13.5a1.276,1.276,0,0,1-1.276,1.276h0A1.275,1.275,0,0,1,0,14.779V1.276A1.276,1.276,0,0,1,1.276,0Z" transform="translate(36.942)" fill="#166043"/><path d="M-10309.434,5076.354a1.263,1.263,0,0,1-.65-.18,1.276,1.276,0,0,1-.444-1.749l6.583-11.063a1.275,1.275,0,0,1,1.748-.444,1.276,1.276,0,0,1,.444,1.748l-6.583,11.064A1.276,1.276,0,0,1-10309.434,5076.354Z" transform="translate(10364.361 -5057.149)" fill="#166043"/><path d="M-10290.716,5085.356a1.274,1.274,0,0,1-.95-.424,1.275,1.275,0,0,1,.1-1.8l6.862-6.163a1.277,1.277,0,0,1,1.8.1,1.275,1.275,0,0,1-.1,1.8l-6.862,6.161A1.267,1.267,0,0,1-10290.716,5085.356Z" transform="translate(10360.353 -5060.128)" fill="#166043"/><path d="M-10352.065,5076.354a1.275,1.275,0,0,1-1.1-.624l-6.582-11.064a1.274,1.274,0,0,1,.444-1.748,1.275,1.275,0,0,1,1.748.444l6.582,11.063a1.275,1.275,0,0,1-.442,1.749A1.267,1.267,0,0,1-10352.065,5076.354Z" transform="translate(10374.909 -5057.149)" fill="#166043"/><path d="M-10370.857,5085.356a1.265,1.265,0,0,1-.852-.327l-6.863-6.161a1.276,1.276,0,0,1-.1-1.8,1.276,1.276,0,0,1,1.8-.1l6.863,6.163a1.277,1.277,0,0,1,.1,1.8A1.277,1.277,0,0,1-10370.857,5085.356Z" transform="translate(10378.996 -5060.128)" fill="#166043"/></g><path d="M-10363.744,5119.713a4.317,4.317,0,0,1-3.217-1.434,1.276,1.276,0,0,1,.1-1.8,1.274,1.274,0,0,1,1.8.1,1.756,1.756,0,0,0,1.931.466,1.75,1.75,0,0,0,1.117-1.649,1.278,1.278,0,0,1,1.26-1.293,1.276,1.276,0,0,1,1.291,1.259,4.309,4.309,0,0,1-2.751,4.063A4.235,4.235,0,0,1-10363.744,5119.713Z" transform="translate(10379.634 -5068.156)"/></g></svg>