<svg xmlns="http://www.w3.org/2000/svg" width="88" height="88" viewBox="0 0 88 88"><rect width="88" height="88" fill="rgba(255,255,255,0)"/><g transform="translate(1.571 3.929)"><circle cx="5.525" cy="5.525" r="5.525" transform="translate(66.632 46.48)" fill="#166043"/><path d="M-10684.567,5520.389" transform="translate(10746.043 -5444.444)" fill="#166043"/><path d="M-10684.567,5515.269l1.093-7.066c.015-.109.032-.207.049-.3a7.577,7.577,0,0,1,7.392-6.26h5.23c3.612,0,5.983,2.633,6.655,6.259l.743,7.623" transform="translate(10746.043 -5440.427)" fill="#166043"/><g transform="translate(0 28.131)"><path d="M-10698.631,5510.706a1.178,1.178,0,0,1-1.179-1.178v-48.812a1.178,1.178,0,0,1,1.179-1.179h14.666a1.178,1.178,0,0,1,1.179,1.179v15.764a1.178,1.178,0,0,1-1.179,1.177,1.178,1.178,0,0,1-1.178-1.177v-14.586h-12.31v47.634A1.179,1.179,0,0,1-10698.631,5510.706Z" transform="translate(10749.31 -5459.536)"/><path d="M-10711.964,5515.422a1.179,1.179,0,0,1-1.179-1.179v-33.475h-12.309v33.475a1.18,1.18,0,0,1-1.179,1.179,1.179,1.179,0,0,1-1.179-1.179V5479.59a1.178,1.178,0,0,1,1.179-1.178h14.666a1.178,1.178,0,0,1,1.179,1.178v34.653A1.179,1.179,0,0,1-10711.964,5515.422Z" transform="translate(10755.309 -5463.581)"/><path d="M-10739.963,5517.988a1.179,1.179,0,0,1-1.18-1.178v-24.062h-12.31v24.063a1.179,1.179,0,0,1-1.178,1.178,1.179,1.179,0,0,1-1.179-1.178v-25.241a1.178,1.178,0,0,1,1.179-1.179h14.667a1.179,1.179,0,0,1,1.179,1.179v25.241A1.179,1.179,0,0,1-10739.963,5517.988Z" transform="translate(10761.309 -5466.147)"/><path d="M-10679.13,5524.851h-82.5a1.179,1.179,0,0,1-1.179-1.179,1.178,1.178,0,0,1,1.179-1.178h82.5a1.179,1.179,0,0,1,1.179,1.178A1.18,1.18,0,0,1-10679.13,5524.851Z" transform="translate(10762.809 -5473.027)"/><g transform="translate(60.584 16.744)"><path d="M-10672.816,5494.662a6.915,6.915,0,0,1-6.908-6.908,6.914,6.914,0,0,1,6.908-6.907,6.915,6.915,0,0,1,6.907,6.907A6.916,6.916,0,0,1-10672.816,5494.662Zm0-11.342a4.439,4.439,0,0,0-4.435,4.434,4.438,4.438,0,0,0,4.435,4.434,4.439,4.439,0,0,0,4.434-4.434A4.439,4.439,0,0,0-10672.816,5483.32Z" transform="translate(10684.42 -5480.847)"/><path d="M-10684.464,5515.8a1.442,1.442,0,0,1-.181-.013,1.237,1.237,0,0,1-1.044-1.4l1.138-7.8c.017-.109.033-.207.053-.3a7.809,7.809,0,0,1,7.705-6.26h5.452a7.809,7.809,0,0,1,7.705,6.259c.019.1.035.194.052.294,0,.029.008.06.01.089l.6,7.454a1.234,1.234,0,0,1-1.134,1.331,1.238,1.238,0,0,1-1.332-1.134l-.595-7.405c-.009-.054-.019-.106-.028-.159a5.336,5.336,0,0,0-5.277-4.256h-5.452a5.333,5.333,0,0,0-5.276,4.255c-.013.066-.025.135-.035.2l-1.137,7.793A1.237,1.237,0,0,1-10684.464,5515.8Z" transform="translate(10685.701 -5484.955)"/></g></g><path d="M-10745.338,5468.813h-15.957a1.177,1.177,0,0,1-1.178-1.179,1.177,1.177,0,0,1,1.178-1.178h14.98l10.313-10.312h11.715l26.165-31.979a1.179,1.179,0,0,1,1.657-.166,1.178,1.178,0,0,1,.166,1.659l-26.871,32.843h-11.855Z" transform="translate(10762.737 -5423.733)" fill="#166043"/><path d="M-10688.872,5513" transform="translate(10746.965 -5442.861)"/></g></svg>