<svg xmlns="http://www.w3.org/2000/svg" width="88" height="88" viewBox="0 0 88 88"><rect width="88" height="88" fill="rgba(255,255,255,0)"/><g transform="translate(1.571 1.571)"><circle cx="8.334" cy="8.334" r="8.334" transform="translate(12.902 67.544)" fill="#166043"/><circle cx="8.334" cy="8.334" r="8.334" transform="translate(56.846 67.544)" fill="#166043"/><path d="M-11044.615,5491.5h12.881l7.575,17.426h-15.91l-4.546-4.546Z" transform="translate(11105.25 -5454.259)" fill="#166043"/><g transform="translate(53.036 35.799)"><path d="M-11052.961,5489.666a1.324,1.324,0,0,0-1.325,1.326v22.54a1.324,1.324,0,0,0,1.325,1.327,1.324,1.324,0,0,0,1.326-1.327v-22.54A1.324,1.324,0,0,0-11052.961,5489.666Z" transform="translate(11054.286 -5489.666)"/></g><g transform="translate(78.255 68.947)"><path d="M-11016.913,5531.854h-3.95a1.325,1.325,0,0,0-1.326,1.326,1.326,1.326,0,0,0,1.326,1.326h3.95a1.324,1.324,0,0,0,1.325-1.326A1.324,1.324,0,0,0-11016.913,5531.854Z" transform="translate(11022.189 -5531.854)"/></g><g transform="translate(82.205 68.947)"><path d="M-11015.836,5531.854a1.325,1.325,0,0,0-1.326,1.326v5.3a1.325,1.325,0,0,0,1.326,1.327,1.325,1.325,0,0,0,1.326-1.327v-5.3A1.325,1.325,0,0,0-11015.836,5531.854Z" transform="translate(11017.162 -5531.854)"/></g><g transform="translate(2.652 74.25)"><path d="M-11107.8,5538.6h0l-9.281.027a1.327,1.327,0,0,0-1.324,1.331,1.328,1.328,0,0,0,1.327,1.322h0l9.281-.028a1.325,1.325,0,0,0,1.323-1.33A1.326,1.326,0,0,0-11107.8,5538.6Z" transform="translate(11118.413 -5538.604)"/></g><g transform="translate(79.554 62.317)"><path d="M-11017.884,5523.416h-1.327a1.324,1.324,0,0,0-1.325,1.327,1.324,1.324,0,0,0,1.325,1.326h1.327a1.325,1.325,0,0,0,1.325-1.326A1.325,1.325,0,0,0-11017.884,5523.416Z" transform="translate(11020.536 -5523.416)"/></g><g transform="translate(80.879 53.036)"><path d="M-11017.523,5511.6a1.324,1.324,0,0,0-1.325,1.325v15.911a1.325,1.325,0,0,0,1.325,1.326,1.324,1.324,0,0,0,1.325-1.326V5512.93A1.323,1.323,0,0,0-11017.523,5511.6Z" transform="translate(11018.849 -5511.604)"/></g><g transform="translate(53.036 35.799)"><path d="M-11033.072,5489.666h-19.889a1.324,1.324,0,0,0-1.325,1.326,1.324,1.324,0,0,0,1.325,1.326h19.889a1.325,1.325,0,0,0,1.326-1.326A1.325,1.325,0,0,0-11033.072,5489.666Z" transform="translate(11054.286 -5489.666)"/></g><g transform="translate(72.924 35.799)"><path d="M-11018.488,5507.673l-7.956-17.236a1.323,1.323,0,0,0-1.759-.648,1.327,1.327,0,0,0-.649,1.759l7.956,17.236a1.326,1.326,0,0,0,1.205.771,1.317,1.317,0,0,0,.555-.122A1.327,1.327,0,0,0-11018.488,5507.673Z" transform="translate(11028.974 -5489.667)"/></g><g transform="translate(2.652 68.947)"><path d="M-11117.086,5531.854a1.325,1.325,0,0,0-1.327,1.326v5.388a1.326,1.326,0,0,0,1.327,1.326,1.326,1.326,0,0,0,1.326-1.326v-5.388A1.325,1.325,0,0,0-11117.086,5531.854Z" transform="translate(11118.413 -5531.854)"/></g><g transform="translate(0 51.71)"><path d="M-11120.461,5509.916a1.324,1.324,0,0,0-1.325,1.327v17.236a1.324,1.324,0,0,0,1.325,1.327,1.324,1.324,0,0,0,1.326-1.327v-17.236A1.324,1.324,0,0,0-11120.461,5509.916Z" transform="translate(11121.786 -5509.916)"/></g><g transform="translate(0 51.71)"><path d="M-11067.425,5509.916h-53.036a1.324,1.324,0,0,0-1.325,1.327,1.324,1.324,0,0,0,1.325,1.326h53.036a1.325,1.325,0,0,0,1.326-1.326A1.325,1.325,0,0,0-11067.425,5509.916Z" transform="translate(11121.786 -5509.916)"/></g><g transform="translate(0 68.947)"><path d="M-11113.831,5531.854h-6.63a1.324,1.324,0,0,0-1.325,1.326,1.324,1.324,0,0,0,1.325,1.326h6.63a1.325,1.325,0,0,0,1.326-1.326A1.325,1.325,0,0,0-11113.831,5531.854Z" transform="translate(11121.786 -5531.854)"/></g><g transform="translate(11.933 66.295)"><path d="M-11097.318,5528.479a9.293,9.293,0,0,0-9.281,9.28,9.3,9.3,0,0,0,9.281,9.282,9.293,9.293,0,0,0,9.281-9.282A9.292,9.292,0,0,0-11097.318,5528.479Zm0,15.91a6.636,6.636,0,0,1-6.628-6.63,6.636,6.636,0,0,1,6.628-6.629,6.637,6.637,0,0,1,6.63,6.629A6.637,6.637,0,0,1-11097.318,5544.39Z" transform="translate(11106.6 -5528.479)"/></g><g transform="translate(17.237 71.599)"><path d="M-11095.871,5535.229a3.983,3.983,0,0,0-3.979,3.978,3.983,3.983,0,0,0,3.979,3.978,3.982,3.982,0,0,0,3.977-3.978A3.981,3.981,0,0,0-11095.871,5535.229Zm0,5.3a1.327,1.327,0,0,1-1.326-1.327,1.326,1.326,0,0,1,1.326-1.326,1.327,1.327,0,0,1,1.326,1.326A1.328,1.328,0,0,1-11095.871,5540.533Z" transform="translate(11099.85 -5535.229)"/></g><g transform="translate(60.991 71.599)"><path d="M-11040.184,5535.229a3.982,3.982,0,0,0-3.978,3.978,3.983,3.983,0,0,0,3.978,3.978,3.982,3.982,0,0,0,3.977-3.978A3.981,3.981,0,0,0-11040.184,5535.229Zm0,5.3a1.326,1.326,0,0,1-1.325-1.327,1.325,1.325,0,0,1,1.325-1.326,1.326,1.326,0,0,1,1.325,1.326A1.326,1.326,0,0,1-11040.184,5540.533Z" transform="translate(11044.161 -5535.229)"/></g><g transform="translate(55.688 66.295)"><path d="M-11041.631,5528.479a9.292,9.292,0,0,0-9.281,9.28,9.293,9.293,0,0,0,9.281,9.282,9.293,9.293,0,0,0,9.281-9.282A9.292,9.292,0,0,0-11041.631,5528.479Zm0,15.91a6.637,6.637,0,0,1-6.63-6.63,6.638,6.638,0,0,1,6.63-6.629,6.637,6.637,0,0,1,6.63,6.629A6.637,6.637,0,0,1-11041.631,5544.39Z" transform="translate(11050.912 -5528.479)"/></g><g transform="translate(27.844 74.25)"><path d="M-11057.146,5538.6h-27.878a1.325,1.325,0,0,0-1.325,1.326,1.324,1.324,0,0,0,1.325,1.326h27.878a1.324,1.324,0,0,0,1.325-1.326A1.325,1.325,0,0,0-11057.146,5538.6Z" transform="translate(11086.349 -5538.604)"/></g><g transform="translate(71.598 74.25)"><path d="M-11018.729,5538.6h-10.607a1.324,1.324,0,0,0-1.325,1.326,1.323,1.323,0,0,0,1.325,1.326h10.607a1.324,1.324,0,0,0,1.326-1.326A1.325,1.325,0,0,0-11018.729,5538.6Z" transform="translate(11030.661 -5538.604)"/></g><g transform="translate(64.969 53.036)"><path d="M-11021.861,5511.6h-15.912a1.324,1.324,0,0,0-1.325,1.325,1.324,1.324,0,0,0,1.325,1.326h15.912a1.324,1.324,0,0,0,1.325-1.326A1.324,1.324,0,0,0-11021.861,5511.6Z" transform="translate(11039.099 -5511.604)"/></g><g transform="translate(59.665 47.733)"><path d="M-11039.22,5510.158a3.984,3.984,0,0,1-3.978-3.979,1.324,1.324,0,0,0-1.326-1.326,1.325,1.325,0,0,0-1.325,1.326,6.636,6.636,0,0,0,6.629,6.629,1.323,1.323,0,0,0,1.325-1.325A1.323,1.323,0,0,0-11039.22,5510.158Z" transform="translate(11045.849 -5504.854)"/></g><g transform="translate(59.665 35.799)"><path d="M-11044.523,5489.666a1.325,1.325,0,0,0-1.325,1.326v11.933a1.324,1.324,0,0,0,1.325,1.326,1.324,1.324,0,0,0,1.326-1.326v-11.933A1.324,1.324,0,0,0-11044.523,5489.666Z" transform="translate(11045.849 -5489.666)"/></g><g transform="translate(57.013 19.888)"><path d="M-11047.9,5469.417a1.326,1.326,0,0,0-1.326,1.327v5.3a1.325,1.325,0,0,0,1.326,1.326,1.324,1.324,0,0,0,1.326-1.326v-5.3A1.325,1.325,0,0,0-11047.9,5469.417Z" transform="translate(11049.225 -5469.417)"/></g><g transform="translate(5.304 22.351)"><path d="M-11113.711,5472.55a1.325,1.325,0,0,0-1.325,1.327v29.359a1.324,1.324,0,0,0,1.325,1.325,1.325,1.325,0,0,0,1.327-1.325v-29.359A1.326,1.326,0,0,0-11113.711,5472.55Z" transform="translate(11115.036 -5472.55)"/></g><g transform="translate(53.036 22.351)"><path d="M-11052.961,5472.55a1.325,1.325,0,0,0-1.325,1.327v29.359a1.324,1.324,0,0,0,1.325,1.325,1.324,1.324,0,0,0,1.326-1.325v-29.359A1.325,1.325,0,0,0-11052.961,5472.55Z" transform="translate(11054.286 -5472.55)"/></g><g transform="translate(1.324)"><path d="M-11062.316,5464.239l-27.845-19.888a1.324,1.324,0,0,0-1.541,0l-27.843,19.888a1.327,1.327,0,0,0-.31,1.85,1.328,1.328,0,0,0,1.852.308l27.072-19.337,27.073,19.337a1.323,1.323,0,0,0,.77.248,1.32,1.32,0,0,0,1.078-.555A1.327,1.327,0,0,0-11062.316,5464.239Z" transform="translate(11120.102 -5444.104)"/></g><g transform="translate(1.324 5.304)"><path d="M-11062.316,5470.989l-27.845-19.888a1.328,1.328,0,0,0-1.541,0l-27.843,19.888a1.326,1.326,0,0,0-.31,1.85,1.33,1.33,0,0,0,1.852.308l27.072-19.337,27.073,19.337a1.323,1.323,0,0,0,.77.248,1.319,1.319,0,0,0,1.078-.556A1.326,1.326,0,0,0-11062.316,5470.989Z" transform="translate(11120.102 -5450.854)"/></g><g transform="translate(1.326 19.888)"><path d="M-11118.773,5469.417a1.325,1.325,0,0,0-1.325,1.327v5.3a1.324,1.324,0,0,0,1.325,1.326,1.324,1.324,0,0,0,1.325-1.326v-5.3A1.325,1.325,0,0,0-11118.773,5469.417Z" transform="translate(11120.099 -5469.417)"/></g><g transform="translate(33.147 35.799)"><path d="M-11078.273,5489.666a1.325,1.325,0,0,0-1.325,1.326V5506.9a1.324,1.324,0,0,0,1.325,1.326,1.325,1.325,0,0,0,1.327-1.326v-15.911A1.325,1.325,0,0,0-11078.273,5489.666Z" transform="translate(11079.599 -5489.666)"/></g><g transform="translate(25.192 35.799)"><path d="M-11080.442,5489.666h-7.956a1.325,1.325,0,0,0-1.325,1.326,1.325,1.325,0,0,0,1.325,1.326h7.956a1.324,1.324,0,0,0,1.325-1.326A1.324,1.324,0,0,0-11080.442,5489.666Z" transform="translate(11089.724 -5489.666)"/></g><g transform="translate(25.192 35.799)"><path d="M-11088.4,5489.666a1.325,1.325,0,0,0-1.325,1.326V5506.9a1.324,1.324,0,0,0,1.325,1.326,1.324,1.324,0,0,0,1.326-1.326v-15.911A1.324,1.324,0,0,0-11088.4,5489.666Z" transform="translate(11089.724 -5489.666)"/></g><g transform="translate(10.607 29.17)"><path d="M-11097.68,5481.229h-9.281a1.324,1.324,0,0,0-1.326,1.326v9.282a1.324,1.324,0,0,0,1.326,1.326h9.281a1.324,1.324,0,0,0,1.326-1.326v-9.282A1.324,1.324,0,0,0-11097.68,5481.229Zm-1.326,9.281h-6.629v-6.629h6.629Z" transform="translate(11108.287 -5481.229)"/></g><g transform="translate(38.451 29.17)"><path d="M-11062.242,5481.229h-9.281a1.324,1.324,0,0,0-1.325,1.326v9.282a1.325,1.325,0,0,0,1.325,1.326h9.281a1.324,1.324,0,0,0,1.326-1.326v-9.282A1.324,1.324,0,0,0-11062.242,5481.229Zm-1.325,9.281h-6.63v-6.629h6.63Z" transform="translate(11072.849 -5481.229)"/></g><g transform="translate(25.192 17.237)"><path d="M-11084.42,5466.041a5.309,5.309,0,0,0-5.3,5.3,5.308,5.308,0,0,0,5.3,5.3,5.308,5.308,0,0,0,5.3-5.3A5.308,5.308,0,0,0-11084.42,5466.041Zm0,7.956a2.655,2.655,0,0,1-2.652-2.652,2.656,2.656,0,0,1,2.652-2.652,2.656,2.656,0,0,1,2.652,2.652A2.655,2.655,0,0,1-11084.42,5474Z" transform="translate(11089.724 -5466.041)"/></g></g></svg>