<svg xmlns="http://www.w3.org/2000/svg" width="88" height="88" viewBox="0 0 88 88"><path d="M0,0H88V88H0Z" fill="rgba(255,255,255,0)"/><g transform="translate(1.571 5.5)"><path d="M-10186.958,4685.731a1.017,1.017,0,0,1-.844-.451l-5.372-8.061a10.051,10.051,0,0,1-1.559-7.258l.766-4.591a8.03,8.03,0,0,0-.741-4.935l-1.277-2.553a10.084,10.084,0,0,1,1.892-11.649,10.1,10.1,0,0,1,14.271,0,10.082,10.082,0,0,1,1.891,11.649l-1.276,2.553a8.025,8.025,0,0,0-.741,4.936l.767,4.59a10.063,10.063,0,0,1-1.562,7.259l-5.371,8.059A1.016,1.016,0,0,1-10186.958,4685.731Z" transform="translate(10197.66 -4642.313)" fill="#166043"/><g transform="translate(0 0)"><path d="M-10166.055,4730.965a1.109,1.109,0,0,1-1.109-1.11v-30.283a1.11,1.11,0,0,1,1.109-1.11,1.11,1.11,0,0,1,1.11,1.11v30.283A1.11,1.11,0,0,1-10166.055,4730.965Z" transform="translate(10191.255 -4654.137)"/><path d="M-10124.942,4730.965a1.109,1.109,0,0,1-1.109-1.11v-30.283a1.11,1.11,0,0,1,1.109-1.11,1.111,1.111,0,0,1,1.11,1.11v30.283A1.111,1.111,0,0,1-10124.942,4730.965Z" transform="translate(10182.444 -4654.137)"/><path d="M-10115.582,4730.965h-78.735a1.11,1.11,0,0,1-1.11-1.11,1.11,1.11,0,0,1,1.11-1.111h77.626v-29.172a1.11,1.11,0,0,1,1.109-1.11,1.111,1.111,0,0,1,1.11,1.11v30.283A1.111,1.111,0,0,1-10115.582,4730.965Z" transform="translate(10197.311 -4654.137)"/><path d="M-10108.059,4695.176h-60.565a1.11,1.11,0,0,1-1.013-.659,1.113,1.113,0,0,1,.187-1.195l18.161-20.177a1.045,1.045,0,0,1,.076-.079c.012-.012.023-.021.035-.034a1.123,1.123,0,0,1,.724-.265h22.208a1.1,1.1,0,0,1,.784.326l20.189,20.188a1.112,1.112,0,0,1,.24,1.211A1.111,1.111,0,0,1-10108.059,4695.176Zm-23.73-2.22h21.051l-17.968-17.969h-19.254Zm-34.342,0h31.354l-15.677-17.418Z" transform="translate(10191.805 -4648.631)"/><path d="M-10142.562,4734.269h-8.075a1.109,1.109,0,0,1-1.109-1.11v-18.169a1.11,1.11,0,0,1,1.109-1.111h8.075a1.111,1.111,0,0,1,1.11,1.111v18.169A1.11,1.11,0,0,1-10142.562,4734.269Zm-6.966-2.221h5.857V4716.1h-5.857Z" transform="translate(10187.95 -4657.44)"/><path d="M-10106.589,4719.035h-8.076a1.111,1.111,0,0,1-1.11-1.11v-8.076a1.111,1.111,0,0,1,1.11-1.11h8.076a1.11,1.11,0,0,1,1.109,1.11v8.076A1.11,1.11,0,0,1-10106.589,4719.035Zm-6.966-2.22h5.854v-5.856h-5.854Z" transform="translate(10180.243 -4656.339)"/><path d="M-10184.042,4730.965a1.11,1.11,0,0,1-1.109-1.11v-30.283a1.11,1.11,0,0,1,1.109-1.11,1.11,1.11,0,0,1,1.11,1.11v30.283A1.11,1.11,0,0,1-10184.042,4730.965Z" transform="translate(10195.109 -4654.137)"/><path d="M-10186.758,4688.593a1.112,1.112,0,0,1-.924-.5l-5.892-8.838a11.038,11.038,0,0,1-1.709-7.958l.84-5.035a8.8,8.8,0,0,0-.811-5.41l-1.4-2.8a11.051,11.051,0,0,1,2.073-12.773,11.077,11.077,0,0,1,15.646,0,11.053,11.053,0,0,1,2.074,12.773l-1.4,2.8a8.806,8.806,0,0,0-.812,5.411l.839,5.034a11.02,11.02,0,0,1-1.711,7.959l-5.889,8.837A1.113,1.113,0,0,1-10186.758,4688.593Zm0-44.325a8.815,8.815,0,0,0-6.252,2.584,8.835,8.835,0,0,0-1.656,10.211l1.4,2.8a11.018,11.018,0,0,1,1.019,6.768l-.841,5.038a8.8,8.8,0,0,0,1.364,6.358l4.968,7.454,4.967-7.453a8.8,8.8,0,0,0,1.366-6.36l-.84-5.035a11.03,11.03,0,0,1,1.019-6.77l1.4-2.8a8.838,8.838,0,0,0-1.656-10.211A8.82,8.82,0,0,0-10186.758,4644.269Z" transform="translate(10197.824 -4642.049)"/></g></g></svg>