<svg xmlns="http://www.w3.org/2000/svg" width="88" height="88" viewBox="0 0 88 88"><rect width="88" height="88" fill="rgba(255,255,255,0)"/><g transform="translate(1.571 19.357)"><path d="M-10733.726,4825.332l.474.263a1.021,1.021,0,0,0,.5.13,1.035,1.035,0,0,0,.55-.159l.454-.286c.341-.216,8.339-5.316,8.269-10.939a5.482,5.482,0,0,0-5.884-5.719l-.15,0a4.882,4.882,0,0,0-3.428,1.493,5.12,5.12,0,0,0-3.595-1.42h-.069a5.876,5.876,0,0,0-4.475,1.841,5.43,5.43,0,0,0-1.255,4.3C-10741.92,4818.788-10738.942,4822.416-10733.726,4825.332Z" transform="translate(10774.371 -4807.375)" fill="#166043"/><path d="M-10734.091,4825.918l.534.3a1.168,1.168,0,0,0,.564.146,1.158,1.158,0,0,0,.62-.179l.515-.323c.385-.243,9.423-6.007,9.344-12.363-.05-3.925-2.658-6.462-6.648-6.462l-.17,0a5.525,5.525,0,0,0-3.875,1.688,5.776,5.776,0,0,0-4.06-1.605h-.079a6.645,6.645,0,0,0-5.058,2.081,6.129,6.129,0,0,0-1.417,4.862C-10743.351,4818.525-10739.986,4822.624-10734.091,4825.918Zm-6.574-15.172a4.415,4.415,0,0,1,3.4-1.3,3.837,3.837,0,0,1,3.146,1.754,1.147,1.147,0,0,0,.972.489,1.161,1.161,0,0,0,.949-.527,3.5,3.5,0,0,1,2.907-1.8h.132c2.711,0,4.285,1.519,4.319,4.167.06,4.8-7.4,9.8-8.19,10.322-5.162-2.9-8.095-6.367-8.479-10.029A3.872,3.872,0,0,1-10740.665,4810.747Z" transform="translate(10774.69 -4807.035)"/><path d="M-10698.715,4836.022l-7.215-12.427a5.862,5.862,0,0,0-4.415-2.535,6.155,6.155,0,0,0,2.8-5.157,6.169,6.169,0,0,0-6.161-6.163,6.17,6.17,0,0,0-6.162,6.163,6.155,6.155,0,0,0,2.8,5.157,5.83,5.83,0,0,0-4.391,2.493l-7.936,11.916a2.842,2.842,0,0,0-1.618-.441,2.685,2.685,0,0,0-1.9.835,50.454,50.454,0,0,1-4.747,3.506h-.842a4.852,4.852,0,0,0,1.508-3.51,4.878,4.878,0,0,0-4.879-4.866,4.876,4.876,0,0,0-4.877,4.866,4.847,4.847,0,0,0,1.507,3.51h-.84a50.12,50.12,0,0,1-4.7-3.462,2.748,2.748,0,0,0-1.944-.879,2.7,2.7,0,0,0-1.7.5c-1.09-1.989-3.89-7.276-4.184-9.628a6.408,6.408,0,0,0-1.489-3.329,4.238,4.238,0,0,0-3.234-1.527h-2.519a6.158,6.158,0,0,0,2.779-5.145,6.168,6.168,0,0,0-6.161-6.162,6.169,6.169,0,0,0-6.161,6.162,6.156,6.156,0,0,0,2.78,5.145h-2.521a4.25,4.25,0,0,0-3.233,1.524,6.4,6.4,0,0,0-1.486,3.333c-.376,2.974-3.021,11.885-3.141,12.288a3.648,3.648,0,0,0,2.454,4.327l.344.107a3.373,3.373,0,0,0,3.665-1.161v24.518a3.5,3.5,0,0,0,3.514,3.467h.963a4.39,4.39,0,0,0,2.823-1.084,4.387,4.387,0,0,0,2.82,1.084h.963a3.5,3.5,0,0,0,3.515-3.467v-29.036l1.065,1.863a3.308,3.308,0,0,0,3.167,2.377,3.518,3.518,0,0,0,1.027-.155l.344-.107a3.54,3.54,0,0,0,1.294-.733c.022.019.042.042.065.061,1.762,1.333,4.688,3.555,5.238,3.981a10.953,10.953,0,0,1,2.142,4.11v7.282l.31,10.956a2.839,2.839,0,0,0,2.874,2.869l.667-.006a3.377,3.377,0,0,0,1.871-.685,3.388,3.388,0,0,0,1.872.685l.673.006h.008a2.821,2.821,0,0,0,2.861-2.836l.31-11.021v-7.251a10.868,10.868,0,0,1,2.142-4.108c.506-.393,3.06-2.332,5.167-3.928a3.709,3.709,0,0,0,.563.324l.272.124a3.6,3.6,0,0,0,1.483.317,3.556,3.556,0,0,0,3.145-1.864l1.347-1.876-2.965,13.581a1.149,1.149,0,0,0,.23.979,1.154,1.154,0,0,0,.9.434h3.674v13.659a3.161,3.161,0,0,0,3.113,3.467h.974a3.611,3.611,0,0,0,2.315-.839,3.232,3.232,0,0,0,2.223.839h.979a3.334,3.334,0,0,0,3.346-3.467v-13.659h3.673a1.165,1.165,0,0,0,.907-.434,1.161,1.161,0,0,0,.229-.977l-2.483-11.375a3.594,3.594,0,0,0,2.946,1.532h0a3.6,3.6,0,0,0,1.486-.318l.271-.123a3.258,3.258,0,0,0,1.815-2.008A3.154,3.154,0,0,0-10698.715,4836.022Zm-70.513-23.958a3.841,3.841,0,0,1,3.837,3.838,3.841,3.841,0,0,1-3.837,3.837,3.84,3.84,0,0,1-3.835-3.837A3.84,3.84,0,0,1-10769.228,4812.065Zm55.524,0a3.843,3.843,0,0,1,3.837,3.839,3.841,3.841,0,0,1-3.837,3.836,3.842,3.842,0,0,1-3.838-3.836A3.844,3.844,0,0,1-10713.7,4812.065Zm5.572,18.936a1.169,1.169,0,0,0-.725,1.336L-10705,4850h-3.392a1.164,1.164,0,0,0-1.162,1.163v14.822a1.044,1.044,0,0,1-1.021,1.142h-.979c-.939,0-.985-.951-.985-1.142v-14.822a1.164,1.164,0,0,0-1.163-1.163,1.164,1.164,0,0,0-1.163,1.163v14.822a1.187,1.187,0,0,1-1.226,1.142h-.974c-.2,0-.789,0-.789-1.142v-14.822a1.163,1.163,0,0,0-1.162-1.163h-3.393l3.856-17.661a1.165,1.165,0,0,0-.664-1.311,1.167,1.167,0,0,0-1.415.384l-4.665,6.49a1.3,1.3,0,0,0-.1.17,1.294,1.294,0,0,1-1.647.562l-.273-.122a.97.97,0,0,1-.549-.578.857.857,0,0,1,.083-.682l8.289-12.45a3.523,3.523,0,0,1,2.6-1.429h6.377a3.562,3.562,0,0,1,2.587,1.41l7.215,12.427a.882.882,0,0,1,.109.724.963.963,0,0,1-.55.579l-.271.122a1.3,1.3,0,0,1-1.681-.619l-3.6-6.489A1.173,1.173,0,0,0-10708.131,4831Zm-33.734,23.43a1.162,1.162,0,0,0-1.161,1.162v10.988c0,.188-.386.525-.771.539l-.617,0a.531.531,0,0,1-.538-.577l-.31-10.955v-7.387a1.1,1.1,0,0,0-.042-.311,13.132,13.132,0,0,0-2.705-5.23c-.115-.141-.123-.153-5.437-4.177a.672.672,0,0,1,.111-.833l.188-.182a.487.487,0,0,1,.356-.141.422.422,0,0,1,.3.149,1.14,1.14,0,0,0,.155.151c5.035,4.061,5.69,4.061,6.082,4.061h8.771c.392,0,1.046,0,6.086-4.063a1.163,1.163,0,0,0,.152-.15.422.422,0,0,1,.3-.147.546.546,0,0,1,.354.137l.194.189a.685.685,0,0,1,.191.381.131.131,0,0,0,.007.032.65.65,0,0,1-.091.414c-5.311,4.024-5.323,4.039-5.437,4.178a13.141,13.141,0,0,0-2.7,5.212,1.188,1.188,0,0,0-.048.33v7.354l-.308,11.021a.523.523,0,0,1-.534.543l-.6,0c-.426-.015-.792-.37-.792-.539v-10.988A1.163,1.163,0,0,0-10741.865,4854.431Zm-16.905-16.643-3.312-5.794a1.165,1.165,0,0,0-1.308-.546,1.161,1.161,0,0,0-.864,1.123v33.412a1.168,1.168,0,0,1-1.19,1.142h-.963c-.759,0-1.658-.619-1.658-1.142v-20.57a1.164,1.164,0,0,0-1.162-1.163,1.163,1.163,0,0,0-1.162,1.163v20.57c0,.523-.9,1.142-1.661,1.142h-.963a1.166,1.166,0,0,1-1.187-1.142v-33.412a1.163,1.163,0,0,0-1.029-1.155,1.159,1.159,0,0,0-1.266.892l-1.719,7.388a.965.965,0,0,1-.463.625,1.03,1.03,0,0,1-.828.084l-.344-.106a1.3,1.3,0,0,1-.9-1.487c.287-.959,2.813-9.473,3.208-12.619a4.009,4.009,0,0,1,.938-2.1,1.954,1.954,0,0,1,1.476-.723h11.8a1.959,1.959,0,0,1,1.479.725,4.051,4.051,0,0,1,.938,2.1c.389,3.117,4,9.66,4.813,11.107a1.308,1.308,0,0,1-.911,1.405l-.346.1a1.029,1.029,0,0,1-.829-.082.954.954,0,0,1-.462-.623A1.169,1.169,0,0,0-10758.771,4837.788Zm19.459-1.928a2.551,2.551,0,0,1-2.554,2.541,2.55,2.55,0,0,1-2.553-2.541,2.55,2.55,0,0,1,2.553-2.541A2.551,2.551,0,0,1-10739.312,4835.86Zm0,33.178Z" transform="translate(10783.098 -4807.615)"/></g></svg>