<svg xmlns="http://www.w3.org/2000/svg" width="88" height="88" viewBox="0 0 88 88"><rect width="88" height="88" fill="rgba(255,255,255,0)"/><g transform="translate(1.571 6.984)"><g transform="translate(12.736 0.658)"><path d="M-10125.23,4972.9a1.267,1.267,0,0,1-.949-.424l-4.324-4.9h-8.547a10.607,10.607,0,0,1-10.73-10.454v-8.144a10.608,10.608,0,0,1,10.73-10.455h28.283a10.609,10.609,0,0,1,10.732,10.455v8.144a10.608,10.608,0,0,1-10.732,10.454h-9.187l-4.326,4.9A1.261,1.261,0,0,1-10125.23,4972.9Z" transform="translate(10155.422 -4938.526)" fill="#166043"/><path d="M-10156.96,4980.176" transform="translate(10156.96 -4947.451)" fill="#166043"/></g><g transform="translate(0)"><g transform="translate(3.349 42.855)"><g transform="translate(27.344)"><path d="M-10120.852,5006.442a7.114,7.114,0,0,1-7.1-7.105,7.113,7.113,0,0,1,7.1-7.1,7.113,7.113,0,0,1,7.105,7.1A7.114,7.114,0,0,1-10120.852,5006.442Zm0-11.666a4.565,4.565,0,0,0-4.56,4.56,4.565,4.565,0,0,0,4.56,4.561,4.565,4.565,0,0,0,4.561-4.561A4.565,4.565,0,0,0-10120.852,4994.776Z" transform="translate(10132.787 -4992.232)"/><path d="M-10132.832,5028.184a1.319,1.319,0,0,1-.184-.013,1.273,1.273,0,0,1-1.075-1.443l1.171-8.026c.017-.113.034-.214.054-.314a8.032,8.032,0,0,1,7.926-6.437h5.607a8.032,8.032,0,0,1,7.925,6.437c.02.1.037.2.052.3l1.108,7.679a1.27,1.27,0,0,1-1.077,1.441,1.271,1.271,0,0,1-1.44-1.077l-1.105-7.666c-.01-.058-.022-.127-.035-.2a5.485,5.485,0,0,0-5.427-4.375h-5.607a5.485,5.485,0,0,0-5.428,4.376c-.015.07-.025.139-.036.209l-1.17,8.016A1.271,1.271,0,0,1-10132.832,5028.184Z" transform="translate(10134.104 -4996.458)"/></g><path d="M-10155.653,5006.442a7.114,7.114,0,0,1-7.105-7.105,7.113,7.113,0,0,1,7.105-7.1,7.112,7.112,0,0,1,7.1,7.1A7.112,7.112,0,0,1-10155.653,5006.442Zm0-11.666a4.567,4.567,0,0,0-4.562,4.56,4.567,4.567,0,0,0,4.562,4.561,4.565,4.565,0,0,0,4.56-4.561A4.565,4.565,0,0,0-10155.653,4994.776Z" transform="translate(10167.59 -4992.232)"/><path d="M-10167.633,5028.184a1.3,1.3,0,0,1-.185-.013,1.273,1.273,0,0,1-1.076-1.443l1.171-8.026c.018-.112.034-.212.054-.312a8.034,8.034,0,0,1,7.926-6.439h5.607a8.034,8.034,0,0,1,7.927,6.437c.018.1.037.2.053.3,0,.032.007.063.011.094l.615,7.666a1.27,1.27,0,0,1-1.166,1.37,1.272,1.272,0,0,1-1.369-1.166l-.613-7.617c-.009-.055-.018-.11-.028-.165a5.488,5.488,0,0,0-5.429-4.376h-5.607a5.485,5.485,0,0,0-5.427,4.376c-.014.069-.025.139-.037.209l-1.169,8.016A1.272,1.272,0,0,1-10167.633,5028.184Z" transform="translate(10168.907 -4996.458)"/><g transform="translate(54.839)"><path d="M-10086.481,5006.442a7.112,7.112,0,0,1-7.1-7.105,7.112,7.112,0,0,1,7.1-7.1,7.112,7.112,0,0,1,7.1,7.1A7.113,7.113,0,0,1-10086.481,5006.442Zm0-11.666a4.566,4.566,0,0,0-4.561,4.56,4.566,4.566,0,0,0,4.561,4.561,4.565,4.565,0,0,0,4.56-4.561A4.565,4.565,0,0,0-10086.481,4994.776Z" transform="translate(10097.927 -4992.232)"/><path d="M-10097.838,5028.184c-.036,0-.072,0-.109,0a1.272,1.272,0,0,1-1.16-1.375l.682-8.026c0-.03.006-.059.011-.088.015-.1.032-.2.051-.3a8.035,8.035,0,0,1,7.926-6.439h5.609a8.035,8.035,0,0,1,7.926,6.437c.018.1.035.2.051.3l1.109,7.679a1.272,1.272,0,0,1-1.078,1.441,1.271,1.271,0,0,1-1.44-1.077l-1.106-7.666c-.009-.057-.021-.126-.035-.2a5.484,5.484,0,0,0-5.426-4.376h-5.609a5.485,5.485,0,0,0-5.427,4.376c-.011.055-.021.111-.029.167l-.678,7.981A1.271,1.271,0,0,1-10097.838,5028.184Z" transform="translate(10099.112 -4996.458)"/></g></g><path d="M-10125.759,4973.541a1.269,1.269,0,0,1-.964-.443l-4.4-5.108h-8.683a10.915,10.915,0,0,1-10.9-10.9v-8.494a10.916,10.916,0,0,1,10.9-10.9h28.739a10.916,10.916,0,0,1,10.9,10.9v8.494a10.915,10.915,0,0,1-10.9,10.9h-9.337l-4.395,5.108A1.273,1.273,0,0,1-10125.759,4973.541Zm-14.043-33.308a8.369,8.369,0,0,0-8.36,8.359v8.494a8.368,8.368,0,0,0,8.36,8.359h9.267a1.276,1.276,0,0,1,.966.442l3.811,4.43,3.812-4.43a1.273,1.273,0,0,1,.963-.442h9.922a8.368,8.368,0,0,0,8.359-8.359v-8.494a8.369,8.369,0,0,0-8.359-8.359Z" transform="translate(10168.355 -4937.689)"/><path d="M-10158.119,4982.714a1.264,1.264,0,0,1-.963-.443l-3.717-4.319h-.836a9.545,9.545,0,0,1-9.535-9.534v-2.389a9.545,9.545,0,0,1,9.535-9.534h3.979a1.273,1.273,0,0,1,1.273,1.272,1.273,1.273,0,0,1-1.273,1.272h-3.979a7,7,0,0,0-6.99,6.989v2.389a7,7,0,0,0,6.99,6.99h1.42a1.271,1.271,0,0,1,.963.443l3.133,3.641,3.133-3.641a1.269,1.269,0,0,1,.965-.443h1.979a6.958,6.958,0,0,0,3.908-1.193,1.272,1.272,0,0,1,1.766.342,1.271,1.271,0,0,1-.342,1.766,9.49,9.49,0,0,1-5.332,1.629h-1.395l-3.717,4.319A1.271,1.271,0,0,1-10158.119,4982.714Z" transform="translate(10173.17 -4941.719)"/><path d="M-10087.588,4982.714a1.267,1.267,0,0,1-.964-.443l-3.717-4.319h-1.4a9.492,9.492,0,0,1-5.332-1.629,1.271,1.271,0,0,1-.341-1.766,1.271,1.271,0,0,1,1.766-.342,6.955,6.955,0,0,0,3.907,1.193h1.979a1.274,1.274,0,0,1,.965.443l3.132,3.641,3.133-3.641a1.27,1.27,0,0,1,.964-.443h1.42a7,7,0,0,0,6.99-6.99v-2.389a7,7,0,0,0-6.99-6.989h-3.98a1.272,1.272,0,0,1-1.271-1.272,1.272,1.272,0,0,1,1.271-1.272h3.98a9.544,9.544,0,0,1,9.533,9.534v2.389a9.544,9.544,0,0,1-9.533,9.534h-.837l-3.715,4.319A1.271,1.271,0,0,1-10087.588,4982.714Z" transform="translate(10157.395 -4941.719)"/></g></g></svg>