<svg xmlns="http://www.w3.org/2000/svg" width="88" height="88" viewBox="0 0 88 88"><rect width="88" height="88" fill="rgba(255,255,255,0)"/><g transform="translate(9.579 4.714)"><path d="M-9581.468,5036.61s-11.242,20.661-10.829,26.849l-26.625.214,2.982,7.141,10.543,13.657s19.12,11.984,30.179.95c0,0,18.2-13.414,8.332-30.358-9.374-14.583-14.582-23.214-14.582-23.214" transform="translate(9632.102 -5012.433)" fill="#166043"/><path d="M-9608.771,5045.48a1.258,1.258,0,0,1-1.063-.582,1.262,1.262,0,0,1,.385-1.74,1.252,1.252,0,0,1,.676-.2,1.254,1.254,0,0,1,1.063.582,1.262,1.262,0,0,1-.383,1.739A1.261,1.261,0,0,1-9608.771,5045.48Z" transform="translate(9630.197 -5014.815)"/><path d="M-9608.771,5045.48a1.258,1.258,0,0,1-1.063-.582,1.262,1.262,0,0,1,.385-1.74,1.252,1.252,0,0,1,.676-.2,1.254,1.254,0,0,1,1.063.582,1.262,1.262,0,0,1-.383,1.739A1.261,1.261,0,0,1-9608.771,5045.48Z" transform="translate(9630.197 -5014.815)"/><path d="M-9596.371,5037.563a1.253,1.253,0,0,1-1.062-.581,1.261,1.261,0,0,1,.385-1.74,1.251,1.251,0,0,1,.674-.2,1.252,1.252,0,0,1,1.063.583,1.245,1.245,0,0,1,.169.949,1.247,1.247,0,0,1-.551.789,1.247,1.247,0,0,1-.677.2Z" transform="translate(9627.54 -5013.118)"/><path d="M-9596.371,5037.563a1.253,1.253,0,0,1-1.062-.581,1.261,1.261,0,0,1,.385-1.74,1.251,1.251,0,0,1,.674-.2,1.252,1.252,0,0,1,1.063.583,1.245,1.245,0,0,1,.169.949,1.247,1.247,0,0,1-.551.789,1.247,1.247,0,0,1-.677.2Z" transform="translate(9627.54 -5013.118)"/><path d="M-9598.612,5047.722a1.26,1.26,0,0,1-1.063-.582,1.262,1.262,0,0,1,.385-1.74,1.258,1.258,0,0,1,.675-.2,1.254,1.254,0,0,1,1.063.582,1.25,1.25,0,0,1,.168.949,1.243,1.243,0,0,1-.551.789,1.258,1.258,0,0,1-.677.2Z" transform="translate(9628.021 -5015.295)"/><path d="M-9598.612,5047.722a1.26,1.26,0,0,1-1.063-.582,1.262,1.262,0,0,1,.385-1.74,1.258,1.258,0,0,1,.675-.2,1.254,1.254,0,0,1,1.063.582,1.25,1.25,0,0,1,.168.949,1.243,1.243,0,0,1-.551.789,1.258,1.258,0,0,1-.677.2Z" transform="translate(9628.021 -5015.295)"/><path d="M-9592.771,5085.71a26.218,26.218,0,0,1-22.211-12.141l-12.441-19.484a1.255,1.255,0,0,1-.169-.949,1.255,1.255,0,0,1,.553-.79,1.251,1.251,0,0,1,.677-.2,1.253,1.253,0,0,1,1.062.582c2.258,3.536,5.483,5.181,10.15,5.181.21,0,.422,0,.638-.009l.937-.028-.332-.875a9.026,9.026,0,0,1,.759-7.827l.5-.82-.942-.182a16.711,16.711,0,0,1-7.15-3.272l-.311-.246-.365.157a5.056,5.056,0,0,1-2,.407,5.1,5.1,0,0,1-4.32-2.359,5.1,5.1,0,0,1,.888-6.552l.3-.264-.093-.386a16.661,16.661,0,0,1,7.237-17.895,5.08,5.08,0,0,1,2.742-.8,5.094,5.094,0,0,1,4.316,2.361,5.118,5.118,0,0,1-1.557,7.06,1.261,1.261,0,0,1-.677.2,1.259,1.259,0,0,1-1.062-.581,1.262,1.262,0,0,1,.384-1.74,2.578,2.578,0,0,0,1.138-1.627,2.582,2.582,0,0,0-.347-1.954,2.583,2.583,0,0,0-2.188-1.2,2.594,2.594,0,0,0-1.395.408,14.127,14.127,0,0,0-5.81,16.355,1.283,1.283,0,0,1-.666,1.538l-.269.127-.036.022a2.591,2.591,0,0,0-.779,3.576,2.588,2.588,0,0,0,2.188,1.2,2.583,2.583,0,0,0,1.395-.408,3.394,3.394,0,0,0,.271-.221l-.013.011a1.285,1.285,0,0,1,.812-.289,1.242,1.242,0,0,1,.857.336,14.1,14.1,0,0,0,9.681,3.833,14.1,14.1,0,0,0,7.6-2.222,14.128,14.128,0,0,0,5.812-16.357,1.27,1.27,0,0,1,.659-1.534l.274-.129.036-.023a2.591,2.591,0,0,0,.779-3.575,2.584,2.584,0,0,0-2.188-1.2,2.583,2.583,0,0,0-1.395.408c-.044.029-.18.142-.259.212l0-.006a1.307,1.307,0,0,1-.821.291,1.234,1.234,0,0,1-.852-.334,14.266,14.266,0,0,0-8.153-3.746,1.262,1.262,0,0,1-1.115-1.39,1.263,1.263,0,0,1,1.251-1.122,1.183,1.183,0,0,1,.138.008,16.7,16.7,0,0,1,8.518,3.483l.311.245.365-.156a5.054,5.054,0,0,1,2-.409,5.1,5.1,0,0,1,4.318,2.359,5.092,5.092,0,0,1-.887,6.55l-.3.266.093.386a16.709,16.709,0,0,1-.038,7.851l-.229.93.952-.107a9.276,9.276,0,0,1,1.033-.059,8.891,8.891,0,0,1,3.174.58l.568.216.269-.545a16.389,16.389,0,0,0-.848-16.189,23.719,23.719,0,0,0-20.091-10.988,23.676,23.676,0,0,0-12.762,3.731,23.624,23.624,0,0,0-10.417,14.925,23.629,23.629,0,0,0,3.17,17.922,1.249,1.249,0,0,1,.168.949,1.246,1.246,0,0,1-.553.79,1.249,1.249,0,0,1-.676.2,1.253,1.253,0,0,1-1.062-.581,26.334,26.334,0,0,1,8.014-36.326,26.181,26.181,0,0,1,14.112-4.126,26.222,26.222,0,0,1,22.213,12.141,18.976,18.976,0,0,1,.439,19.779,75.087,75.087,0,0,0-9.907,37.354,1.254,1.254,0,0,1-.584,1.063,1.262,1.262,0,0,1-.677.2,1.26,1.26,0,0,1-1.258-1.257,77.759,77.759,0,0,1,8.9-36.083l.376-.72-.779-.229a6.613,6.613,0,0,0-1.855-.269,6.378,6.378,0,0,0-3.25.887l-.147.088-.088.149a16.7,16.7,0,0,1-5.408,5.623,16.7,16.7,0,0,1-7.387,2.541l-.172.017-.143.1a6.421,6.421,0,0,0-1.818,8.723l.217.348.408-.037c1.164-.106,2.329-.159,3.46-.159a35.239,35.239,0,0,1,4.3.262,1.263,1.263,0,0,1,1.1,1.406,1.259,1.259,0,0,1-1.248,1.1,1.072,1.072,0,0,1-.157-.01,34.007,34.007,0,0,0-4.145-.254,33.925,33.925,0,0,0-4.211.262,29.318,29.318,0,0,1-3.911.291,17.556,17.556,0,0,1-4.124-.454l-1.607-.384,8.046,12.6a23.708,23.708,0,0,0,20.082,10.979h0a23.68,23.68,0,0,0,12.764-3.732,23.63,23.63,0,0,0,10.417-14.924,23.623,23.623,0,0,0-3.169-17.922l-7.258-11.366a1.246,1.246,0,0,1-.169-.949,1.25,1.25,0,0,1,.553-.79,1.25,1.25,0,0,1,.676-.2,1.257,1.257,0,0,1,1.063.582l7.257,11.366a26.119,26.119,0,0,1,3.5,19.82,26.125,26.125,0,0,1-11.517,16.5,26.185,26.185,0,0,1-14.112,4.127Z" transform="translate(9635.697 -5007.138)"/><path d="M-9592.771,5085.71a26.218,26.218,0,0,1-22.211-12.141l-12.441-19.484a1.255,1.255,0,0,1-.169-.949,1.255,1.255,0,0,1,.553-.79,1.251,1.251,0,0,1,.677-.2,1.253,1.253,0,0,1,1.062.582c2.258,3.536,5.483,5.181,10.15,5.181.21,0,.422,0,.638-.009l.937-.028-.332-.875a9.026,9.026,0,0,1,.759-7.827l.5-.82-.942-.182a16.711,16.711,0,0,1-7.15-3.272l-.311-.246-.365.157a5.056,5.056,0,0,1-2,.407,5.1,5.1,0,0,1-4.32-2.359,5.1,5.1,0,0,1,.888-6.552l.3-.264-.093-.386a16.661,16.661,0,0,1,7.237-17.895,5.08,5.08,0,0,1,2.742-.8,5.094,5.094,0,0,1,4.316,2.361,5.118,5.118,0,0,1-1.557,7.06,1.261,1.261,0,0,1-.677.2,1.259,1.259,0,0,1-1.062-.581,1.262,1.262,0,0,1,.384-1.74,2.578,2.578,0,0,0,1.138-1.627,2.582,2.582,0,0,0-.347-1.954,2.583,2.583,0,0,0-2.188-1.2,2.594,2.594,0,0,0-1.395.408,14.127,14.127,0,0,0-5.81,16.355,1.283,1.283,0,0,1-.666,1.538l-.269.127-.036.022a2.591,2.591,0,0,0-.779,3.576,2.588,2.588,0,0,0,2.188,1.2,2.583,2.583,0,0,0,1.395-.408,3.394,3.394,0,0,0,.271-.221l-.013.011a1.285,1.285,0,0,1,.812-.289,1.242,1.242,0,0,1,.857.336,14.1,14.1,0,0,0,9.681,3.833,14.1,14.1,0,0,0,7.6-2.222,14.128,14.128,0,0,0,5.812-16.357,1.27,1.27,0,0,1,.659-1.534l.274-.129.036-.023a2.591,2.591,0,0,0,.779-3.575,2.584,2.584,0,0,0-2.188-1.2,2.583,2.583,0,0,0-1.395.408c-.044.029-.18.142-.259.212l0-.006a1.307,1.307,0,0,1-.821.291,1.234,1.234,0,0,1-.852-.334,14.266,14.266,0,0,0-8.153-3.746,1.262,1.262,0,0,1-1.115-1.39,1.263,1.263,0,0,1,1.251-1.122,1.183,1.183,0,0,1,.138.008,16.7,16.7,0,0,1,8.518,3.483l.311.245.365-.156a5.054,5.054,0,0,1,2-.409,5.1,5.1,0,0,1,4.318,2.359,5.092,5.092,0,0,1-.887,6.55l-.3.266.093.386a16.709,16.709,0,0,1-.038,7.851l-.229.93.952-.107a9.276,9.276,0,0,1,1.033-.059,8.891,8.891,0,0,1,3.174.58l.568.216.269-.545a16.389,16.389,0,0,0-.848-16.189,23.719,23.719,0,0,0-20.091-10.988,23.676,23.676,0,0,0-12.762,3.731,23.624,23.624,0,0,0-10.417,14.925,23.629,23.629,0,0,0,3.17,17.922,1.249,1.249,0,0,1,.168.949,1.246,1.246,0,0,1-.553.79,1.249,1.249,0,0,1-.676.2,1.253,1.253,0,0,1-1.062-.581,26.334,26.334,0,0,1,8.014-36.326,26.181,26.181,0,0,1,14.112-4.126,26.222,26.222,0,0,1,22.213,12.141,18.976,18.976,0,0,1,.439,19.779,75.087,75.087,0,0,0-9.907,37.354,1.254,1.254,0,0,1-.584,1.063,1.262,1.262,0,0,1-.677.2,1.26,1.26,0,0,1-1.258-1.257,77.759,77.759,0,0,1,8.9-36.083l.376-.72-.779-.229a6.613,6.613,0,0,0-1.855-.269,6.378,6.378,0,0,0-3.25.887l-.147.088-.088.149a16.7,16.7,0,0,1-5.408,5.623,16.7,16.7,0,0,1-7.387,2.541l-.172.017-.143.1a6.421,6.421,0,0,0-1.818,8.723l.217.348.408-.037c1.164-.106,2.329-.159,3.46-.159a35.239,35.239,0,0,1,4.3.262,1.263,1.263,0,0,1,1.1,1.406,1.259,1.259,0,0,1-1.248,1.1,1.072,1.072,0,0,1-.157-.01,34.007,34.007,0,0,0-4.145-.254,33.925,33.925,0,0,0-4.211.262,29.318,29.318,0,0,1-3.911.291,17.556,17.556,0,0,1-4.124-.454l-1.607-.384,8.046,12.6a23.708,23.708,0,0,0,20.082,10.979h0a23.68,23.68,0,0,0,12.764-3.732,23.63,23.63,0,0,0,10.417-14.924,23.623,23.623,0,0,0-3.169-17.922l-7.258-11.366a1.246,1.246,0,0,1-.169-.949,1.25,1.25,0,0,1,.553-.79,1.25,1.25,0,0,1,.676-.2,1.257,1.257,0,0,1,1.063.582l7.257,11.366a26.119,26.119,0,0,1,3.5,19.82,26.125,26.125,0,0,1-11.517,16.5,26.185,26.185,0,0,1-14.112,4.127Z" transform="translate(9635.697 -5007.138)"/></g></svg>