<svg xmlns="http://www.w3.org/2000/svg" width="88" height="88" viewBox="0 0 88 88"><rect width="88" height="88" fill="rgba(255,255,255,0)"/><g transform="translate(1.571 7.071)"><path d="M-10346.427,4959.463c.089,0,.173.022.262.026a7.089,7.089,0,0,1-.262-1.82,7.174,7.174,0,0,1,7.174-7.173,7.174,7.174,0,0,1,7.175,7.173,7.047,7.047,0,0,1-.263,1.82c.089,0,.172-.026.263-.026a7.174,7.174,0,0,1,7.173,7.174,7.174,7.174,0,0,1-7.173,7.174h-14.349a7.174,7.174,0,0,1-7.174-7.174A7.174,7.174,0,0,1-10346.427,4959.463Z" transform="translate(10376.558 -4949.075)" fill="#166043"/><path d="M-10306.028,4988.509c.09,0,.174.023.262.026a7.132,7.132,0,0,1-.262-1.82,7.174,7.174,0,0,1,7.173-7.174,7.175,7.175,0,0,1,7.176,7.174,7.175,7.175,0,0,1-.262,1.82c.088,0,.172-.026.262-.026a7.174,7.174,0,0,1,7.174,7.174,7.174,7.174,0,0,1-7.174,7.174h-14.349a7.174,7.174,0,0,1-7.174-7.174A7.174,7.174,0,0,1-10306.028,4988.509Z" transform="translate(10367.9 -4955.299)" fill="#166043"/><path d="M-10373.8,4970.706c.089,0,.173.023.262.026a7.1,7.1,0,0,1-.262-1.82,7.174,7.174,0,0,1,7.174-7.175,7.174,7.174,0,0,1,7.174,7.175,7.1,7.1,0,0,1-.262,1.82c.089,0,.172-.026.262-.026a7.174,7.174,0,0,1,7.174,7.175,7.174,7.174,0,0,1-7.174,7.173h-14.348a7.174,7.174,0,0,1-7.174-7.173A7.174,7.174,0,0,1-10373.8,4970.706Z" transform="translate(10382.424 -4951.484)" fill="#166043"/><path d="M-10331.717,4974.358h-10.762a1.178,1.178,0,0,1-1.177-1.178,1.178,1.178,0,0,1,1.177-1.177h10.762a6,6,0,0,0,6-6,6,6,0,0,0-6-6,1.12,1.12,0,0,1-.213.026,1.166,1.166,0,0,1-.967-.437,1.183,1.183,0,0,1-.221-1.039,5.9,5.9,0,0,0,.224-1.521,6,6,0,0,0-6-6,6,6,0,0,0-6,6,5.9,5.9,0,0,0,.224,1.521,1.173,1.173,0,0,1-.222,1.037,1.179,1.179,0,0,1-.967.439,2.326,2.326,0,0,1-.24-.024h-.008a5.965,5.965,0,0,0-2.864.745,1.178,1.178,0,0,1-1.6-.461,1.176,1.176,0,0,1,.459-1.6,8.375,8.375,0,0,1,2.9-.961c-.023-.235-.034-.465-.034-.695a8.36,8.36,0,0,1,8.351-8.352,8.361,8.361,0,0,1,8.352,8.352,6.667,6.667,0,0,1-.034.694,8.365,8.365,0,0,1,7.208,8.274A8.361,8.361,0,0,1-10331.717,4974.358Z" transform="translate(10375.939 -4948.687)"/><path d="M-10335.987,4991.152a1.177,1.177,0,0,1-1.178-1.178v-28.7a1.177,1.177,0,0,1,1.178-1.178,1.177,1.177,0,0,1,1.177,1.178v28.7A1.177,1.177,0,0,1-10335.987,4991.152Z" transform="translate(10373.035 -4951.133)"/><path d="M-10335.986,4972.892a1.183,1.183,0,0,1-.982-.525,1.178,1.178,0,0,1,.327-1.633l5.381-3.587a1.179,1.179,0,0,1,1.634.327,1.176,1.176,0,0,1-.327,1.632l-5.382,3.587A1.157,1.157,0,0,1-10335.986,4972.892Z" transform="translate(10373.036 -4952.601)"/><path d="M-10360.118,4985.771h-14.349a8.361,8.361,0,0,1-8.352-8.352,8.366,8.366,0,0,1,7.208-8.274c-.023-.234-.033-.465-.033-.693a8.361,8.361,0,0,1,8.353-8.352,8.362,8.362,0,0,1,8.351,8.352c0,.229-.011.459-.034.693a8.366,8.366,0,0,1,7.208,8.274A8.361,8.361,0,0,1-10360.118,4985.771Zm-14.349-14.348a6,6,0,0,0-6,6,6,6,0,0,0,6,6h14.349a6,6,0,0,0,6-6,6,6,0,0,0-6-6,1.327,1.327,0,0,1-.223.026,1.256,1.256,0,0,1-.961-.444,1.177,1.177,0,0,1-.217-1.033,5.937,5.937,0,0,0,.224-1.521,6,6,0,0,0-6-6,6.006,6.006,0,0,0-6,6,5.98,5.98,0,0,0,.224,1.521,1.174,1.174,0,0,1-.217,1.033,1.249,1.249,0,0,1-.961.444c-.086,0-.169-.014-.253-.025Z" transform="translate(10382.818 -4951.133)"/><path d="M-10363.379,5002.566a1.178,1.178,0,0,1-1.178-1.179v-28.7a1.176,1.176,0,0,1,1.178-1.177,1.177,1.177,0,0,1,1.177,1.177v28.7A1.178,1.178,0,0,1-10363.379,5002.566Z" transform="translate(10378.905 -4953.579)"/><path d="M-10363.379,4984.3a1.18,1.18,0,0,1-.981-.524,1.179,1.179,0,0,1,.328-1.634l5.38-3.588a1.18,1.18,0,0,1,1.633.327,1.178,1.178,0,0,1-.327,1.634l-5.379,3.587A1.172,1.172,0,0,1-10363.379,4984.3Z" transform="translate(10378.905 -4955.046)"/><path d="M-10364.849,4982.022a1.163,1.163,0,0,1-.651-.2l-5.382-3.587a1.178,1.178,0,0,1-.327-1.633,1.178,1.178,0,0,1,1.634-.327l5.381,3.587a1.178,1.178,0,0,1,.327,1.633A1.176,1.176,0,0,1-10364.849,4982.022Z" transform="translate(10380.373 -4954.557)"/><path d="M-10350.161,5030.61a1.193,1.193,0,0,1-.493-.109c-7.394-3.411-15.212-9.087-14.978-14.792.142-3.439,3.1-6.234,8.79-8.311,10.329-3.768,24.474-8.928,25-14.057.188-1.828-1.451-3.831-4.873-5.953a1.177,1.177,0,0,1-.38-1.621,1.176,1.176,0,0,1,1.621-.38c4.313,2.674,6.268,5.355,5.976,8.2-.632,6.123-11.4,10.5-26.536,16.028-3.238,1.182-7.121,3.214-7.245,6.2-.174,4.234,6.935,9.477,13.611,12.556a1.178,1.178,0,0,1,.576,1.563A1.178,1.178,0,0,1-10350.161,5030.61Z" transform="translate(10379.137 -4956.513)"/><path d="M-10310.864,5035.175a1.152,1.152,0,0,1-.4-.069c-11.346-4.051-23.51-8.88-24.259-14.917-.289-2.331,1.083-4.529,4.078-6.533a59.646,59.646,0,0,0,7.551-5.814,1.178,1.178,0,0,1,1.665.056,1.179,1.179,0,0,1-.057,1.665,61.979,61.979,0,0,1-7.85,6.05c-2.194,1.469-3.221,2.911-3.05,4.286.634,5.1,16.1,10.628,22.712,12.988a1.179,1.179,0,0,1,.714,1.506A1.179,1.179,0,0,1-10310.864,5035.175Z" transform="translate(10372.691 -4961.295)"/><path d="M-10291.638,5004.033h-14.35a8.36,8.36,0,0,1-8.351-8.353,8.365,8.365,0,0,1,7.208-8.273,6.674,6.674,0,0,1-.035-.693,8.361,8.361,0,0,1,8.352-8.352,8.361,8.361,0,0,1,8.353,8.352c0,.229-.011.459-.034.693a8.365,8.365,0,0,1,7.208,8.273A8.361,8.361,0,0,1-10291.638,5004.033Zm-14.35-14.349a6,6,0,0,0-6,6,6,6,0,0,0,6,6h14.35a6,6,0,0,0,5.994-6,6,6,0,0,0-5.994-6,1.146,1.146,0,0,1-.226.026,1.176,1.176,0,0,1-.958-.443,1.183,1.183,0,0,1-.219-1.034,5.936,5.936,0,0,0,.224-1.52,6,6,0,0,0-6-6,6,6,0,0,0-6,6,5.906,5.906,0,0,0,.223,1.52,1.173,1.173,0,0,1-.217,1.034,1.182,1.182,0,0,1-.96.443,2.108,2.108,0,0,1-.249-.024Z" transform="translate(10368.145 -4955.046)"/><path d="M-10293.795,4971.749a1.177,1.177,0,0,1-1.177-1.177,6,6,0,0,0-6-6,1.171,1.171,0,0,1-.225.026,1.22,1.22,0,0,1-.958-.444,1.18,1.18,0,0,1-.218-1.033,5.937,5.937,0,0,0,.224-1.521,6,6,0,0,0-6-6,6.031,6.031,0,0,0-5.609,3.873,1.177,1.177,0,0,1-1.52.683,1.176,1.176,0,0,1-.684-1.518,8.4,8.4,0,0,1,7.813-5.394,8.361,8.361,0,0,1,8.352,8.352c0,.229-.011.459-.033.693a8.366,8.366,0,0,1,7.208,8.274A1.177,1.177,0,0,1-10293.795,4971.749Z" transform="translate(10368.508 -4949.665)"/><path d="M-10294.9,5020.827a1.178,1.178,0,0,1-1.178-1.178v-28.7a1.178,1.178,0,0,1,1.178-1.178,1.177,1.177,0,0,1,1.179,1.178v28.7A1.177,1.177,0,0,1-10294.9,5020.827Z" transform="translate(10364.232 -4957.492)"/><path d="M-10294.9,5002.566a1.176,1.176,0,0,1-.98-.525,1.177,1.177,0,0,1,.325-1.633l5.382-3.586a1.178,1.178,0,0,1,1.633.327,1.178,1.178,0,0,1-.326,1.634l-5.38,3.586A1.18,1.18,0,0,1-10294.9,5002.566Z" transform="translate(10364.232 -4958.959)"/></g></svg>